<svg xmlns="http://www.w3.org/2000/svg" width="12" height="12" fill="none"><path fill="#2D3440" fill-rule="evenodd" d="M3.35355 3.14645c-.19526-.19527-.51184-.19527-.7071 0-.19527.19526-.19527.51184 0 .7071L4.79289 6 2.64645 8.14645c-.19527.19526-.19527.51184 0 .7071.19526.19527.51184.19527.7071 0l2.5-2.5c.19527-.19526.19527-.51184 0-.7071l-2.5-2.5Zm3.49997 0c-.19526-.19527-.51184-.19527-.7071 0-.19527.19526-.19527.51184 0 .7071L8.29286 6 6.14642 8.14645c-.19527.19526-.19527.51184 0 .7071.19526.19527.51184.19527.7071 0l2.5-2.5c.19526-.19526.19526-.51184 0-.7071l-2.5-2.5Z" clip-rule="evenodd"/></svg>
