<svg width="24" height="24" viewBox="0 0 16 16" fill="none" xmlns="http://www.w3.org/2000/svg"><path fill-rule="evenodd" clip-rule="evenodd" d="M16 8A8 8 0 1 1 0 8a8 8 0 0 1 16 0ZM8.29 5.9c-.78.33-2.34 1-4.67 2.02-.38.15-.58.3-.6.44-.02.24.28.34.7.47l.17.05c.4.14.96.3 1.24.3.26 0 .55-.1.87-.32a82.12 82.12 0 0 1 3.38-2.23c.05-.01.12-.03.16.01.05.04.04.12.04.14a22.62 22.62 0 0 1-2.2 2.16l-.2.18c-.37.37-.66.64.02 1.1.33.2.6.38.85.56a59.64 59.64 0 0 0 1.2.82c.34.23.64.45 1 .41.22-.02.44-.22.55-.82.27-1.41.79-4.48.9-5.75.02-.1.01-.21 0-.31a.34.34 0 0 0-.12-.22.52.52 0 0 0-.3-.1c-.31.01-.77.17-3 1.1Z" fill="#2D3440"/></svg>
