<svg xmlns="http://www.w3.org/2000/svg" width="40" height="38" fill="none"><rect width="36" height="36" x="38.8457" y="37" fill="#FCFCFC" fill-opacity=".3" rx="18" transform="rotate(180 38.8457 37)"/><path fill="#FCFCFC" fill-rule="evenodd" d="M21.7104 24.1352c.2597.2597.6808.2597.9405 0 .2597-.2597.2597-.6807 0-.9404l-4.2013-4.2013 4.2013-4.2013c.2597-.2597.2597-.6808 0-.9405-.2597-.2597-.6807-.2597-.9404 0l-4.6687 4.6688c-.001.0009-.0019.0018-.0029.0028-.2597.2597-.2597.6807 0 .9404l4.6715 4.6715Z" clip-rule="evenodd"/><rect width="36" height="36" x="38.8457" y="37" stroke="#FCFCFC" stroke-width="2" rx="18" transform="rotate(180 38.8457 37)"/></svg>