<svg xmlns="http://www.w3.org/2000/svg" width="14" height="14" fill="none"><path fill="#2D3440" fill-rule="evenodd" d="M1.6633 6.188c0-2.5774 2.0893-4.6667 4.6667-4.6667 2.5773 0 4.6666 2.0893 4.6666 4.6666 0 1.2573-.4972 2.3985-1.3057 3.2376a.6735.6735 0 0 0-.1234.1234c-.8392.8085-1.9803 1.3057-3.2375 1.3057-2.5774 0-4.6667-2.0893-4.6667-4.6667Zm8.4118 4.6879a5.9747 5.9747 0 0 1-3.7451 1.312c-3.3138 0-6-2.6863-6-6s2.6862-6 6-6c3.3137 0 6 2.6863 6 6a5.9747 5.9747 0 0 1-1.3121 3.7452l2.4501 2.4501a.6666.6666 0 0 1 0 .9428.6666.6666 0 0 1-.9428 0l-2.4501-2.4501Z" clip-rule="evenodd"/></svg>