<svg xmlns="http://www.w3.org/2000/svg" width="16" height="17" fill="none"><path fill="#2D3440" fill-rule="evenodd" d="M3.80812 7.0532c-.26035-.26035-.68246-.26035-.94281 0-.26035.26035-.26035.68246 0 .94281l4.66034 4.66039a.92223.92223 0 0 0 .00624.0063c.1307.1307.30215.1958.47345.1952.16996-.0005.33977-.0655.46944-.1952a.91567.91567 0 0 0 .00621-.0063l4.66041-4.66039c.2603-.26035.2603-.68246 0-.94281-.2604-.26035-.6825-.26035-.9428 0l-4.19526 4.1952-4.19522-4.1952Z" clip-rule="evenodd"/></svg>